# xmcd CD database file
# 
# Track frame offsets:
# 	150
# 	16436
# 	36035
# 	57523
# 	77260
# 	94400
# 	114827
# 	132475
# 	147660
# 	169943
# 
# Disc length: 2542 seconds
# 
# Submitted via: Nero 5.5.10.42
# 
# Revision: 0
# Processed by: cddbd v1.4PL0 Copyright (c) Steve Scherf et al.
#
DISCID=8609ec0a
DTITLE=Larry Joe Taylor - Summer Days
DYEAR=1900
DGENRE=
TTITLE0=Summer Days
TTITLE1=Anywhere the Sun Shines
TTITLE2=Second Wind
TTITLE3=Once You Clear the Jettys
TTITLE4=Take It Breezy
TTITLE5=Fall Like a Stone
TTITLE6=If I Can't Get Over You
TTITLE7=Still Singin' Just For You
TTITLE8=Headed South
TTITLE9=Miss the Boat
EXTD=
EXTT0=
EXTT1=
EXTT2=
EXTT3=
EXTT4=
EXTT5=
EXTT6=
EXTT7=
EXTT8=
EXTT9=
PLAYORDER=
